<svg width="70" height="70" viewBox="0 0 70 70" fill="none" xmlns="http://www.w3.org/2000/svg">
<rect width="70" height="70" rx="10" fill="black"/>
<g clip-path="url(#clip0_213_275)">
<path d="M26 27V24H28V27H31V29H28V32H26V29H23V27H26ZM29 33V30H32V27H39L40.83 29H44C45.1 29 46 29.9 46 31V43C46 44.1 45.1 45 44 45H28C26.9 45 26 44.1 26 43V33H29ZM36 42C38.76 42 41 39.76 41 37C41 34.24 38.76 32 36 32C33.24 32 31 34.24 31 37C31 39.76 33.24 42 36 42ZM32.8 37C32.8 38.77 34.23 40.2 36 40.2C37.77 40.2 39.2 38.77 39.2 37C39.2 35.23 37.77 33.8 36 33.8C34.23 33.8 32.8 35.23 32.8 37Z" fill="white"/>
</g>
<defs>
<clipPath id="clip0_213_275">
<rect width="24" height="24" fill="white" transform="translate(23 23)"/>
</clipPath>
</defs>
</svg>
