<svg width="17" height="17" viewBox="0 0 17 17" fill="none" xmlns="http://www.w3.org/2000/svg">
<g clip-path="url(#clip0_116_899)">
<path d="M14.1667 0H2.83334V1.41667H14.1667V0ZM2.83334 17H14.1667V15.5833H2.83334V17ZM14.1667 2.83333H2.83334C2.05417 2.83333 1.41667 3.47083 1.41667 4.25V12.75C1.41667 13.5292 2.05417 14.1667 2.83334 14.1667H14.1667C14.9458 14.1667 15.5833 13.5292 15.5833 12.75V4.25C15.5833 3.47083 14.9458 2.83333 14.1667 2.83333ZM8.5 4.78125C9.37834 4.78125 10.0938 5.49667 10.0938 6.375C10.0938 7.25333 9.37834 7.96875 8.5 7.96875C7.62167 7.96875 6.90625 7.25333 6.90625 6.375C6.90625 5.49667 7.62167 4.78125 8.5 4.78125ZM12.0417 12.0417H4.95834V10.9792C4.95834 9.79625 7.31709 9.20833 8.5 9.20833C9.68292 9.20833 12.0417 9.79625 12.0417 10.9792V12.0417Z" fill="#323232"/>
</g>
<defs>
<clipPath id="clip0_116_899">
<rect width="17" height="17" fill="white"/>
</clipPath>
</defs>
</svg>
