<svg width="10" height="10" viewBox="0 0 10 10" fill="none" xmlns="http://www.w3.org/2000/svg">
<g clip-path="url(#clip0_116_928)">
<path d="M6.8875 4.60834L6.44583 4.16667L4.4125 6.2L3.52917 5.31667L3.0875 5.75834L4.4125 7.08334L6.8875 4.60834V4.60834ZM7.91667 1.25001H7.5V0.416672H6.66667V1.25001H3.33333V0.416672H2.5V1.25001H2.08333C1.62083 1.25001 1.25417 1.62501 1.25417 2.08334L1.25 7.91667C1.25 8.375 1.62083 8.75 2.08333 8.75H7.91667C8.375 8.75 8.75 8.375 8.75 7.91667V2.08334C8.75 1.62501 8.375 1.25001 7.91667 1.25001ZM7.91667 7.91667H2.08333V3.33334H7.91667V7.91667Z" fill="#323232"/>
</g>
<defs>
<clipPath id="clip0_116_928">
<rect width="10" height="10" fill="white"/>
</clipPath>
</defs>
</svg>
