<svg width="10" height="10" viewBox="0 0 10 10" fill="none" xmlns="http://www.w3.org/2000/svg">
<g clip-path="url(#clip0_116_925)">
<path d="M4.99584 0.833328C2.69584 0.833328 0.833344 2.69999 0.833344 4.99999C0.833344 7.29999 2.69584 9.16666 4.99584 9.16666C7.30001 9.16666 9.16668 7.29999 9.16668 4.99999C9.16668 2.69999 7.30001 0.833328 4.99584 0.833328ZM7.88334 3.33333H6.65418C6.52084 2.81249 6.32918 2.31249 6.07918 1.84999C6.84584 2.11249 7.48334 2.64583 7.88334 3.33333ZM5.00001 1.68333C5.34584 2.18333 5.61668 2.73749 5.79584 3.33333H4.20418C4.38334 2.73749 4.65418 2.18333 5.00001 1.68333ZM1.77501 5.83333C1.70834 5.56666 1.66668 5.28749 1.66668 4.99999C1.66668 4.71249 1.70834 4.43333 1.77501 4.16666H3.18334C3.15001 4.44166 3.12501 4.71666 3.12501 4.99999C3.12501 5.28333 3.15001 5.55833 3.18334 5.83333H1.77501ZM2.11668 6.66666H3.34584C3.47918 7.18749 3.67084 7.68749 3.92084 8.14999C3.15418 7.88749 2.51668 7.35833 2.11668 6.66666V6.66666ZM3.34584 3.33333H2.11668C2.51668 2.64166 3.15418 2.11249 3.92084 1.84999C3.67084 2.31249 3.47918 2.81249 3.34584 3.33333V3.33333ZM5.00001 8.31666C4.65418 7.81666 4.38334 7.26249 4.20418 6.66666H5.79584C5.61668 7.26249 5.34584 7.81666 5.00001 8.31666ZM5.97501 5.83333H4.02501C3.98751 5.55833 3.95834 5.28333 3.95834 4.99999C3.95834 4.71666 3.98751 4.43749 4.02501 4.16666H5.97501C6.01251 4.43749 6.04168 4.71666 6.04168 4.99999C6.04168 5.28333 6.01251 5.55833 5.97501 5.83333ZM6.07918 8.14999C6.32918 7.68749 6.52084 7.18749 6.65418 6.66666H7.88334C7.48334 7.35416 6.84584 7.88749 6.07918 8.14999V8.14999ZM6.81668 5.83333C6.85001 5.55833 6.87501 5.28333 6.87501 4.99999C6.87501 4.71666 6.85001 4.44166 6.81668 4.16666H8.22501C8.29168 4.43333 8.33334 4.71249 8.33334 4.99999C8.33334 5.28749 8.29168 5.56666 8.22501 5.83333H6.81668Z" fill="#323232"/>
</g>
<defs>
<clipPath id="clip0_116_925">
<rect width="10" height="10" fill="white"/>
</clipPath>
</defs>
</svg>
