<svg width="456" height="199" viewBox="0 0 456 199" fill="none" xmlns="http://www.w3.org/2000/svg">
<rect width="456" height="199" rx="10" fill="#F5F5F5"/>
<path d="M174.65 101.033H172.148V98.9277H174.65V96.4258H176.756V98.9277H179.258V101.033H176.756V103.549H174.65V101.033ZM194.734 105.354H192.67V99.2012H191.85V104.779H189.854V92.8984H191.85V97.4648H192.67V92.707H194.734V105.354ZM188.719 95.8789H186.217V100.842C186.764 100.828 187.276 100.801 187.755 100.76C188.238 100.719 188.728 100.655 189.225 100.568L189.375 102.332C188.66 102.464 187.958 102.553 187.27 102.599C186.586 102.64 185.811 102.66 184.945 102.66H184.016V94.1289H188.719V95.8789ZM207.381 104.055H195.828V102.318H198.467V100.309H196.73V98.5586H198.248V95.3594H196.662V93.623H206.506V95.3594H204.879V98.5586H206.438V100.309H204.701V102.318H207.381V104.055ZM202.705 98.5586V95.3594H200.436V98.5586H202.705ZM202.5 102.318V100.309H200.668V102.318H202.5ZM212.85 95.2363C212.84 96.5215 213.05 97.6562 213.479 98.6406C213.911 99.625 214.636 100.359 215.652 100.842L214.34 102.592C213.137 102.018 212.271 101.015 211.742 99.584C211.159 101.133 210.22 102.214 208.926 102.824L207.6 101.047C208.68 100.568 209.454 99.8141 209.924 98.7842C210.398 97.7497 210.635 96.5671 210.635 95.2363V93.6094H212.85V95.2363ZM218.018 97.4238H219.727V99.2695H218.018V105.354H215.816V92.707H218.018V97.4238ZM227.492 95.2637H225.188C225.22 96.0156 225.464 96.6969 225.92 97.3076C226.376 97.9183 227.091 98.3672 228.066 98.6543L226.945 100.363C226.285 100.163 225.719 99.8711 225.25 99.4883C224.781 99.1055 224.4 98.6475 224.108 98.1143C223.808 98.6976 223.409 99.2012 222.912 99.625C222.42 100.049 221.823 100.368 221.121 100.582L220 98.873C220.993 98.5768 221.725 98.1029 222.194 97.4512C222.668 96.7949 222.924 96.0658 222.96 95.2637H220.574V93.5273H227.492V95.2637ZM230.691 101.785H228.49V92.7344H230.691V101.785ZM230.992 105.176H222.037V100.992H224.252V103.426H230.992V105.176ZM246.715 102.004H242.012V105.367H239.824V102.004H235.176V100.24H246.715V102.004ZM245.689 95.7969H242.114C242.215 96.1204 242.417 96.4372 242.723 96.7471C243.028 97.0524 243.468 97.3258 244.042 97.5674C244.621 97.8044 245.334 97.9707 246.182 98.0664L245.389 99.7617C244.336 99.6569 243.438 99.4268 242.695 99.0713C241.952 98.7113 241.365 98.2624 240.932 97.7246C240.503 98.2669 239.915 98.7158 239.168 99.0713C238.425 99.4268 237.523 99.6569 236.461 99.7617L235.668 98.0664C236.52 97.9707 237.233 97.8044 237.808 97.5674C238.386 97.3304 238.828 97.0592 239.134 96.7539C239.444 96.444 239.649 96.125 239.749 95.7969H236.174V94.1016H239.824V92.748H242.012V94.1016H245.689V95.7969ZM257.365 97.3691H258.979V99.1602H257.365V105.326H255.164V92.707H257.365V97.3691ZM253.92 93.9648C253.915 95.3411 253.733 96.5967 253.373 97.7314C253.018 98.8662 252.423 99.903 251.589 100.842C250.755 101.781 249.641 102.592 248.246 103.275L247.002 101.607C247.954 101.129 248.752 100.607 249.395 100.042C250.042 99.4723 250.554 98.8366 250.933 98.1348C251.311 97.4284 251.562 96.6309 251.685 95.7422H247.795V93.9648H253.92ZM269.465 97.5059H271.174V99.2969H269.465V105.354H267.291V92.707H269.465V97.5059ZM266.676 96.248H259.307V94.5117H261.918V92.9395H264.105V94.5117H266.676V96.248ZM263.012 96.7402C263.632 96.7402 264.192 96.8724 264.693 97.1367C265.199 97.401 265.596 97.7679 265.883 98.2373C266.174 98.7021 266.32 99.2285 266.32 99.8164C266.32 100.409 266.174 100.94 265.883 101.409C265.596 101.879 265.199 102.245 264.693 102.51C264.192 102.774 263.632 102.906 263.012 102.906C262.383 102.906 261.815 102.774 261.31 102.51C260.804 102.245 260.407 101.879 260.12 101.409C259.833 100.94 259.689 100.409 259.689 99.8164C259.689 99.2285 259.833 98.7021 260.12 98.2373C260.407 97.7679 260.804 97.401 261.31 97.1367C261.815 96.8724 262.383 96.7402 263.012 96.7402ZM263.012 98.5039C262.647 98.5039 262.351 98.6201 262.123 98.8525C261.9 99.0804 261.79 99.4017 261.795 99.8164C261.79 100.245 261.9 100.571 262.123 100.794C262.346 101.017 262.643 101.129 263.012 101.129C263.376 101.129 263.668 101.017 263.887 100.794C264.105 100.571 264.215 100.245 264.215 99.8164C264.215 99.4017 264.103 99.0804 263.88 98.8525C263.661 98.6201 263.372 98.5039 263.012 98.5039ZM282.207 105.354H279.979V92.707H282.207V105.354ZM278.379 94.0059C278.379 95.4323 278.213 96.7015 277.88 97.8135C277.547 98.9209 276.955 99.9395 276.103 100.869C275.255 101.799 274.077 102.615 272.568 103.316L271.447 101.594C272.495 101.092 273.348 100.559 274.004 99.9941C274.66 99.4245 275.157 98.7933 275.494 98.1006C275.836 97.4079 276.055 96.6126 276.15 95.7148H272.172V94.0059H278.379Z" fill="black"/>
</svg>
