<svg width="13" height="11" viewBox="0 0 13 11" fill="none" xmlns="http://www.w3.org/2000/svg">
<g clip-path="url(#clip0_116_922)">
<path d="M6.495 0.916672C3.735 0.916672 1.495 2.97001 1.495 5.5C1.495 8.03 3.735 10.0833 6.495 10.0833C9.255 10.0833 11.495 8.03 11.495 5.5C11.495 2.97001 9.255 0.916672 6.495 0.916672V0.916672ZM8.3 3.82251C8.835 3.82251 9.265 4.21667 9.265 4.70709C9.265 5.19751 8.835 5.59167 8.3 5.59167C7.765 5.59167 7.335 5.19751 7.335 4.70709C7.33 4.21667 7.765 3.82251 8.3 3.82251V3.82251ZM5.3 3.09834C5.95 3.09834 6.48 3.58417 6.48 4.18C6.48 4.77584 5.95 5.26167 5.3 5.26167C4.65 5.26167 4.12 4.77584 4.12 4.18C4.12 3.57959 4.645 3.09834 5.3 3.09834ZM5.3 7.28292V9.00167C4.1 8.65792 3.15 7.81 2.73 6.72834C3.255 6.215 4.565 5.95375 5.3 5.95375C5.565 5.95375 5.9 5.99042 6.25 6.05459C5.43 6.45334 5.3 6.98042 5.3 7.28292ZM6.495 9.16667C6.36 9.16667 6.23 9.16209 6.1 9.14834V7.28292C6.1 6.63209 7.57 6.30667 8.3 6.30667C8.835 6.30667 9.76 6.48542 10.22 6.83375C9.635 8.195 8.19 9.16667 6.495 9.16667V9.16667Z" fill="#323232"/>
</g>
<defs>
<clipPath id="clip0_116_922">
<rect width="12" height="11" fill="white" transform="translate(0.5)"/>
</clipPath>
</defs>
</svg>
